<?xml version="1.0" standalone="no"?>
<!DOCTYPE svg PUBLIC "-//W3C//DTD SVG 20010904//EN"
 "http://www.w3.org/TR/2001/REC-SVG-20010904/DTD/svg10.dtd">
<svg version="1.0" xmlns="http://www.w3.org/2000/svg"
 width="149.000000pt" height="112.000000pt" viewBox="0 0 149.000000 112.000000"
 preserveAspectRatio="xMidYMid meet">
<metadata>
Created by potrace 1.16, written by Peter Selinger 2001-2019
</metadata>
<g transform="translate(0.000000,112.000000) scale(0.100000,-0.100000)"
fill="#000000" stroke="none">
<path d="M10 767 l0 -342 208 -208 207 -207 320 0 320 0 208 208 207 207 0
343 0 342 -735 0 -735 0 0 -343z m730 -207 l0 -530 -152 0 -153 0 -202 202
-203 203 0 327 0 328 355 0 355 0 0 -530z m710 198 l0 -323 -197 -197 -198
-198 -142 0 -143 0 0 520 0 520 340 0 340 0 0 -322z"/>
<path d="M323 815 c-41 -17 -73 -69 -73 -117 0 -50 37 -91 121 -133 38 -20 70
-43 74 -54 20 -65 -44 -105 -130 -81 -25 7 -48 17 -51 21 -11 19 -25 8 -22
-18 7 -63 128 -96 208 -55 46 23 80 75 80 123 0 51 -36 92 -120 134 -37 19
-70 41 -74 50 -11 30 -6 55 14 75 23 23 59 25 112 6 31 -11 38 -11 42 0 20 53
-99 85 -181 49z"/>
<path d="M996 809 c-14 -20 -16 -54 -16 -226 0 -195 1 -203 21 -213 11 -7 32
-9 45 -6 23 6 24 11 24 80 l0 73 57 7 c113 13 167 65 167 161 0 96 -52 135
-194 143 -83 4 -88 3 -104 -19z m190 -61 c21 -21 29 -83 15 -117 -15 -34 -43
-49 -91 -47 l-35 1 -3 79 c-4 106 -2 110 54 103 25 -2 52 -11 60 -19z"/>
</g>
</svg>
